<?xml version="1.0" encoding="utf-8"?>
<!-- Generator: Adobe Illustrator 27.0.0, SVG Export Plug-In . SVG Version: 6.00 Build 0)  -->
<svg version="1.1" id="Layer_1" xmlns="http://www.w3.org/2000/svg" xmlns:xlink="http://www.w3.org/1999/xlink" x="0px" y="0px"
	 viewBox="0 0 50 50" style="enable-background:new 0 0 50 50;" xml:space="preserve">
<style type="text/css">
	.st0{fill:#444444;}
</style>
<path class="st0" d="M47.5,35.6c-0.4-0.5-0.8-1.1-1.3-1.4c-0.9-0.5-1.7-1-2.6-1.5c-0.7-0.4-1.3-0.8-2-1.1c-0.6-0.2-1-0.5-1.5-0.8
	c-0.7-0.4-1.2-1-1.9-1.2c-0.6-0.4-1.2-0.6-1.8-0.8c-0.3-0.1-0.5-0.1-0.8,0c-0.4,0.1-0.7,0.2-1.1,0.3c-0.1,0-0.2,0-0.3,0.1
	c-0.5,0.3-0.9,0.7-1.3,1.1c-0.5,0.4-0.9,0.9-1.3,1.4c-0.5,0.6-1,1.2-1.5,1.8c-0.3,0.4-0.6,0.4-1,0.2c-0.2-0.1-0.4-0.3-0.6-0.4
	c-0.8-0.4-1.5-0.9-2.3-1.4c-0.7-0.4-1.3-0.8-1.9-1.3c-0.5-0.4-1-0.8-1.5-1.2c-0.4-0.3-0.7-0.6-1.1-0.9c-0.2-0.2-0.4-0.3-0.5-0.5
	c-0.2-0.3-0.4-0.6-0.7-0.8c-0.9-0.8-1.5-1.8-2.2-2.7c-0.5-0.6-0.8-1.4-1.3-2c-0.4-0.5-0.7-1-1-1.5c-0.3-0.4-0.3-0.6,0.2-0.9
	c0.4-0.3,0.9-0.6,1.3-1c0.9-0.9,1.8-1.7,2.7-2.6c0.6-0.5,0.8-1.2,0.9-2c0-0.1,0-0.2,0-0.3c-0.2-0.5-0.3-1.1-0.5-1.6
	c-0.4-0.7-0.8-1.3-1.2-2c-0.6-1.1-1.2-2.1-1.8-3.1c-0.3-0.7-0.7-1.3-1.1-2c-0.1-0.1-0.1-0.1-0.1-0.2c-0.3-0.8-0.9-1.6-1.6-2.2
	c-0.1-0.1-0.3-0.2-0.5-0.2c-0.2-0.1-0.5-0.2-0.8-0.2c-0.3-0.1-0.6-0.1-0.9-0.1C11.7,2.7,10.8,2.9,9.9,3C9.2,3.1,8.6,3.4,8,3.7
	C7,4.2,6.2,5,5.6,5.9C5.2,6.4,4.9,7,4.5,7.6C4.3,7.8,4.3,8,4.2,8.2C4.1,8.4,4.1,8.6,4,8.7c-0.2,0.6-0.5,1.2-0.8,1.8
	C3.1,10.7,3,10.9,3,11.1c0,0.8-0.2,1.6-0.5,2.6c-0.2,0.6-0.1,1.3,0,1.9c0.2,1,0.3,2.1,0.7,3.1c0.3,0.7,0.4,1.5,0.7,2.3
	c0.1,0.3,0.3,0.6,0.4,0.9c0.1,0.2,0.1,0.4,0.2,0.6c0,0.1,0.1,0.2,0.1,0.3c0.3,0.7,0.7,1.4,1,2.1c0.2,0.5,0.5,1,0.7,1.5
	c0.2,0.3,0.3,0.7,0.5,1c0.1,0.2,0.2,0.5,0.4,0.7c0.3,0.5,0.7,1,1.1,1.5c0.7,1.1,1.5,2.1,2.3,3.1c0.5,0.5,1,0.9,1.4,1.4
	c0.3,0.3,0.5,0.6,0.8,0.9c0.5,0.6,0.9,1.3,1.6,1.7c0.6,0.4,1.1,0.9,1.6,1.4c0.4,0.4,0.9,0.8,1.3,1.2c0.6,0.5,1.2,0.9,1.8,1.4
	c0.6,0.5,1.2,0.9,1.8,1.4H21c0.5,0.3,0.9,0.6,1.4,0.9c1.1,0.7,2.2,1.2,3.4,1.6c0.2,0,0.3,0.1,0.5,0.2c0.7,0.2,1.3,0.6,2,0.8
	c0.6,0.3,1.2,0.5,1.8,0.7c0.6,0.2,1.1,0.3,1.7,0.5c0.5,0.1,1.1,0.3,1.6,0.4c0.1,0,0.3,0.1,0.4,0.1c0.5,0.1,1.1,0.1,1.8,0.1
	c0.2,0,0.5,0,1.2,0c0.7-0.1,1.4-0.2,2.1-0.3c0.4-0.1,0.8-0.2,1.1-0.4c0.1-0.1,0.3-0.2,0.4-0.2c0.8,0,1.5-0.5,2.2-0.8
	c1.1-0.5,1.9-1.3,2.8-2c0.2-0.2,0.4-0.4,0.5-0.6c0.4-0.7,0.9-1.3,1.1-2.1c0.1-0.5,0.3-0.9,0.4-1.4c0.1-0.3,0.1-0.6,0.2-0.9
	c0.1-0.7,0.2-1.3,0.2-1.9C47.8,36.4,47.7,36,47.5,35.6z M43.9,38.7c-0.1,0.3-0.2,0.6-0.3,0.9c-0.2,0.5-0.4,1-0.6,1.4
	c-0.2,0.3-0.5,0.5-0.8,0.7c-0.5,0.4-1,0.7-1.5,1.1c-0.1,0-0.2,0.1-0.2,0.1c-0.7,0.2-1.4,0.5-2,0.7c0,0-0.1,0-0.1,0.1
	C38,44,37.6,44,37.1,44s-1,0-1.5,0.1c-0.9,0-1.8,0-2.7-0.4c-0.4-0.1-0.8-0.3-1.2-0.4c-0.3-0.1-0.7-0.2-1-0.3c-0.1,0-0.2-0.1-0.3-0.1
	c-0.1-0.1-0.3-0.2-0.4-0.2c-0.6-0.1-1.2-0.4-1.8-0.7c-0.5-0.2-1.1-0.4-1.6-0.6c-0.3-0.1-0.5-0.3-0.8-0.4c-0.8-0.5-1.6-0.9-2.4-1.5
	c-0.8-0.5-1.6-1.1-2.4-1.7c-0.4-0.3-0.8-0.6-1.1-1c-0.6-0.5-1.1-1.1-1.7-1.5c-0.7-0.5-1.3-1.2-1.9-1.8c-0.7-0.8-1.4-1.6-2.1-2.3
	c-0.3-0.3-0.7-0.6-0.9-1c-0.5-0.6-1-1.3-1.5-2c-0.4-0.5-0.8-1.1-1.2-1.7c-0.1-0.2-0.2-0.4-0.3-0.5c-0.2-0.3-0.3-0.5-0.5-0.8
	c-0.3-0.5-0.5-1-0.7-1.6C9,23.3,8.8,23,8.7,22.7c-0.1-0.2-0.1-0.4-0.2-0.6c-0.3-0.8-0.7-1.7-0.9-2.5c-0.4-1.3-1-2.6-1.1-4.1
	c0-0.3-0.1-0.6-0.1-0.9c0-0.2,0-0.3,0-0.5c0.1-0.5,0.1-1.1,0.3-1.6c0.1-0.5,0.3-1,0.5-1.4C6.9,10.8,7,10.6,7,10.3
	c0.1-0.2,0.1-0.4,0.3-0.6c0.3-0.4,0.6-0.9,0.9-1.4C8.5,7.7,9,7.4,9.5,7c0.3-0.2,0.6-0.4,1-0.4c0.1,0,0.2,0,0.3-0.1
	c0.5-0.1,1.1-0.3,1.6-0.4c0.2-0.1,0.4,0,0.6,0.2c0.3,0.5,0.7,0.9,1,1.4s0.5,0.9,0.8,1.4c0.4,0.8,0.9,1.6,1.3,2.4
	c0.2,0.3,0.3,0.7,0.5,1c0.2,0.4,0.5,0.7,0.8,1c0.1,0.1,0.2,0.1,0.2,0.2c0.2,0.2,0.2,0.5,0,0.7c-0.5,0.5-1.1,0.9-1.6,1.4
	c-0.1,0.1-0.2,0.1-0.2,0.2c-0.7,0.6-1.3,1.2-2,1.7c-0.5,0.4-0.8,1-1.1,1.6c-0.2,0.5-0.2,1.1,0,1.7c0.1,0.2,0.1,0.4,0.2,0.6
	c0.1,0.9,0.7,1.5,1.1,2.2c0.4,0.6,0.7,1.2,1.1,1.8c0.6,1,1.3,2,2.1,2.8c0.4,0.5,0.8,1,1.2,1.5c0.7,0.8,1.5,1.6,2.4,2.3
	c0.2,0.1,0.4,0.3,0.5,0.4c0.7,0.7,1.5,1.2,2.2,1.8c0,0,0.1,0.1,0.2,0.1c0.6,0.2,1,0.6,1.6,0.9c0.5,0.3,1.1,0.7,1.7,1
	c0.4,0.3,0.8,0.5,1.3,0.8c0.3,0.4,0.8,0.5,1.6,0.5c0.5,0.1,0.9-0.1,1.4-0.5c0.6-0.4,1.1-0.9,1.6-1.5c0.4-0.6,1-1.2,1.5-1.7
	c0.4-0.4,0.7-0.8,1.1-1.2c0.3-0.3,0.4-0.3,0.8-0.1c0.3,0.2,0.6,0.5,1,0.7c0.4,0.3,0.9,0.5,1.3,0.8c0.8,0.5,1.8,0.8,2.6,1.4
	c0.6,0.4,1.2,0.7,1.8,1.1c0.3,0.2,0.6,0.3,0.9,0.5c0.2,0.1,0.2,0.3,0.2,0.5C44.1,38,44,38.4,43.9,38.7z"/>
</svg>
