<?xml version="1.0" encoding="utf-8"?>
<!-- Generator: Adobe Illustrator 27.0.0, SVG Export Plug-In . SVG Version: 6.00 Build 0)  -->
<svg version="1.1" id="Layer_1" xmlns="http://www.w3.org/2000/svg" xmlns:xlink="http://www.w3.org/1999/xlink" x="0px" y="0px"
	 viewBox="0 0 50 50" style="enable-background:new 0 0 50 50;" xml:space="preserve">
<style type="text/css">
	.st0{fill:#444444;}
</style>
<path class="st0" d="M0,46.8c0.4-0.7,0.6-1.5,1.1-2c6.2-6.2,12.4-12.4,18.6-18.6c1.1-1.1,1.1-1.2,0-2.3C13.5,17.7,7.3,11.5,1.1,5.3
	c-1.3-1.3-1.3-2.9,0-4.2C2.5-0.3,3.9-0.4,5.3,1c6.3,6.2,12.5,12.5,18.7,18.8c0.9,0.9,1.1,1,2,0c6.1-6.1,12.2-12.3,18.3-18.4
	c0.5-0.5,1.1-1,1.7-1.2c1.4-0.4,2.7,0.3,3.6,1.7c0.6,1,0.4,2.4-0.6,3.4C42.9,11.5,36.6,17.7,30.4,24c-0.9,0.9-1,1.1-0.1,2
	c6.2,6.2,12.3,12.3,18.5,18.5c1.8,1.8,1.6,3.6-0.5,5.1c-0.9,0.6-2.4,0.5-3.3-0.4c-1.5-1.5-3.1-3-4.6-4.5c-4.8-4.8-9.7-9.7-14.5-14.5
	c-0.9-0.9-1-0.8-1.9,0.1c-6.3,6.3-12.6,12.6-18.8,18.9c-0.9,0.9-2,0.9-3,0.6C1.1,49.5,0.2,47.9,0,46.8z"/>
</svg>
