<?xml version="1.0" encoding="utf-8"?>
<!-- Generator: Adobe Illustrator 27.0.0, SVG Export Plug-In . SVG Version: 6.00 Build 0)  -->
<svg version="1.1" id="Layer_1" xmlns="http://www.w3.org/2000/svg" xmlns:xlink="http://www.w3.org/1999/xlink" x="0px" y="0px"
	 viewBox="0 0 90 90" style="enable-background:new 0 0 90 90;" xml:space="preserve">
<g>
	<path d="M42.2,9.1c2.1,0.4,4.3,0.9,6.4,1.1c2.9,0.3,5.2,1.8,7.3,3.5c2.5,2.1,4,4.8,4.7,7.9c0.5,2.6,0.7,5.2,0.9,7.8
		c0.1,0.9-0.2,1.9-0.4,2.8c-0.1,0.5-0.3,0.9-0.4,1.4c-0.5,4.6-3.1,7.9-6.9,10.3c-2.7,1.7-5.7,2.4-8.8,2.7c-4.7,0.4-9.2-0.4-13.2-2.7
		c-2.4-1.4-4.2-3.4-5.4-5.9c-2.2-4.5-2.8-9.3-1.7-14.2c0.1-0.6,0.2-1.2,0.3-1.8c1.1-5,3.8-8.6,8.5-10.8C36.2,10.1,39.1,9.5,42.2,9.1
		z M42.8,13.3c-2.7,0.2-5.4,0.3-7.7,1.7c-1.3,0.8-2.7,1.6-3.7,2.8c-1.8,2-3.1,4.4-3,7.2c0,0.3-0.1,0.6-0.1,0.8
		c-0.6,3.4-0.2,6.6,1.2,9.8c1.8,4.1,5.1,6.1,9.4,6.9c1.1,0.2,2.1,0.3,3.2,0.4c3.2,0.1,6.4-0.3,9.2-2c4.7-2.7,6-7.3,6.3-12.2
		c0.1-2-0.3-4.2-0.8-6.1c-0.9-3.2-2.8-5.7-5.7-7.3C48.5,13.8,45.7,13.5,42.8,13.3z"/>
	<path d="M72.8,78.9c-0.2,1-0.7,1.7-1.7,1.9c-0.7,0.2-1.9-0.8-2.2-1.7c-1.6-5.3-4.3-9.9-8.6-13.4c-3.7-2.9-7.7-5.3-12.6-6
		c-2.3-0.3-4.6-0.8-6.9-0.5c-2.4,0.3-4.7,0.9-7.1,1.5c-2.6,0.6-4.8,2-6.9,3.5c-3,2.3-5.7,4.9-7.6,8.2c-1.2,2.2-2.3,4.3-3,6.7
		c-0.3,0.9-1.8,1.7-2.5,1.5c-1-0.3-1.3-1.2-1.1-2.5c0.6-3.9,2.6-7.2,4.8-10.3c1.3-1.9,3-3.6,4.7-5.1c2.8-2.4,5.9-4.2,9.4-5.6
		c5.1-2.1,10.4-2.1,15.6-1.6c2.8,0.3,5.6,1,8.2,2.4c2,1.1,4.2,2,6,3.5c2.7,2.2,5.4,4.4,7.1,7.5c1.3,2.4,2.6,4.8,3.8,7.3
		C72.6,77.1,72.6,78.1,72.8,78.9z"/>
</g>
</svg>
