<?xml version="1.0" encoding="utf-8"?>
<!-- Generator: Adobe Illustrator 27.0.0, SVG Export Plug-In . SVG Version: 6.00 Build 0)  -->
<svg version="1.1" id="Layer_1" xmlns="http://www.w3.org/2000/svg" xmlns:xlink="http://www.w3.org/1999/xlink" x="0px" y="0px"
	 viewBox="0 0 90 90" style="enable-background:new 0 0 90 90;" xml:space="preserve">
<g>
	<path d="M45.3,0.2c3.5,0.2,6.8,1,10.1,1.9c3.9,1.1,7.2,3.2,10.4,5.6c2.9,2.1,4.9,5.1,6.9,8.2c1.9,3,2.7,6.3,3.9,9.6
		c0.3,0.8,0.3,1.7,0.3,2.6c0,3.4,0.3,6.8,0,10.2c-0.2,2.3-1.1,4.7-2.1,6.8c-1.8,3.7-3.9,7.2-6.1,10.7c-2.6,4.1-5.3,8-8,12.1
		c-2.5,3.8-5,7.7-7.5,11.5c-2,3-4,6.1-6,9.1c-1.2,1.8-2.6,1.8-3.8,0c-2.3-3.4-4.5-6.8-6.8-10.2c-3.7-5.5-7.3-11-10.9-16.6
		c-2.4-3.8-4.9-7.6-7.1-11.5c-1.5-2.6-2.9-5.3-3.9-8c-0.8-2.1-1-4.4-1.2-6.6c-0.2-2.5-0.2-5.1,0.1-7.7c0.2-2.1,0.5-4.3,1.6-6.3
		c0.9-1.7,1.4-3.6,2.3-5.2c2.4-4.2,5.5-7.8,9.6-10.3c2-1.2,4-2.5,6.2-3.4c1.9-0.8,4-1.1,6-1.5C41.1,0.7,43.2,0.5,45.3,0.2z
		 M45.8,3.9c-1.5,0.1-2.7,0-3.9,0.2c-2.2,0.5-4.5,1-6.7,1.7c-2,0.7-4,1.4-5.7,2.6c-2.4,1.7-4.7,3.6-6.7,5.9c-4,4.6-6,9.9-6.6,15.9
		c-0.2,2.1,0.1,4.3,0.3,6.4c0.2,3,1.2,5.8,2.7,8.5c1.1,1.9,2.2,3.7,3.3,5.5c2,3.3,4,6.5,6.1,9.8c2.3,3.5,4.7,6.9,7,10.4
		c1.9,2.8,3.7,5.6,5.6,8.4c0.9,1.4,1.7,2.8,2.5,4.2c0.2,0.4,0.6,0.9,0.9,0.9c0.5-0.1,1-0.4,1.3-0.8c1.2-1.7,2.2-3.5,3.3-5.3
		c2.4-3.7,4.9-7.3,7.3-11c2.4-3.6,4.7-7.3,7.1-11c2.8-4.2,5.7-8.3,7.8-12.9c1.2-2.7,1.8-5.5,2.1-8.4c0.2-1.9,0.1-3.8-0.2-5.7
		c-0.4-2.4-0.7-4.9-1.6-7.1c-1.7-4-3.8-7.9-7.5-10.7c-1.8-1.4-3.4-2.9-5.5-4C54.7,5.3,50.3,4,45.8,3.9z"/>
	<path d="M44.7,44.7c-7-0.1-12.1-5.9-11.8-12.5c0.3-8.1,6.5-12.1,12.7-11.8c7,0.3,11.9,5.6,11.5,13C56.7,40.9,50.6,44.7,44.7,44.7z
		 M44.7,23.8c-5.8,0.2-8.8,5-8.7,9.2c0,2.2,1,4.4,2.7,6c1.9,1.8,4.3,2.9,6.8,2.7c4.9-0.3,9.2-4.9,8.7-9.7
		C53.5,27.6,49.8,23.2,44.7,23.8z"/>
</g>
</svg>
