<?xml version="1.0" encoding="utf-8"?>
<!-- Generator: Adobe Illustrator 27.0.0, SVG Export Plug-In . SVG Version: 6.00 Build 0)  -->
<svg version="1.1" id="Layer_1" xmlns="http://www.w3.org/2000/svg" xmlns:xlink="http://www.w3.org/1999/xlink" x="0px" y="0px"
	 viewBox="0 0 40 40" style="enable-background:new 0 0 40 40;" xml:space="preserve">
<style type="text/css">
	.st0{fill:#9D2A1E;}
</style>
<g>
	<path class="st0" d="M0,20c0-5.3,1.8-10,5.5-13.8c3.8-4,8.6-6,14.2-6.2C30.9-0.3,39.9,8.8,40,19.7c0.1,5.4-1.7,10.1-5.4,14
		c-3.9,4.1-8.6,6.2-14.3,6.3C9.3,40.2,0,31.4,0,20z M2.9,19.9c0,9.5,7.5,17.1,16.9,17.2C29.4,37.1,37,29.6,37,20
		c0-9.4-7.4-17.1-17.1-17.1C10.6,2.9,3.1,10.4,2.9,19.9z"/>
	<path class="st0" d="M23,16.9c0,1,0,2,0,3c0,1.7-1,2.8-2.6,3.2c-0.4,0.1-0.8,0-1.2-0.1c-1.5-0.4-2.5-1.8-2.4-3.3
		c0.1-1.9,0.1-3.9,0-5.9c-0.1-1.6,1.6-3.4,3.5-3.1c1.2,0.2,2.7,1.5,2.6,2.9C23,14.7,23,15.8,23,16.9C23,16.9,23,16.9,23,16.9z"/>
	<path class="st0" d="M20,32.3c-1.6,0.2-3.1-1.6-3.1-3c0-1.7,1.4-3.1,3.2-3.1c1.6,0,3,1.4,3,3.1C23.1,30.8,21.5,32.5,20,32.3z"/>
</g>
</svg>
