<?xml version="1.0" encoding="utf-8"?>
<!-- Generator: Adobe Illustrator 27.0.0, SVG Export Plug-In . SVG Version: 6.00 Build 0)  -->
<svg version="1.1" id="Layer_1" xmlns="http://www.w3.org/2000/svg" xmlns:xlink="http://www.w3.org/1999/xlink" x="0px" y="0px"
	 viewBox="0 0 86 86" enable-background="new 0 0 86 86" xml:space="preserve">
<g>
	<path d="M43.19,85.48c-9.9,0-19.81-0.02-29.71,0.02c-1.84,0.01-3.63-0.18-5.34-0.81c-2.44-0.9-4.52-2.28-5.5-4.86
		c-0.04-0.11-0.07-0.24-0.15-0.33c-1.32-1.6-1.04-3.51-0.94-5.32c0.14-2.44,0.57-4.86,0.79-7.3C2.6,64,2.72,61.11,2.99,58.24
		c0.15-1.59,0.5-3.17,0.76-4.76c0.06-0.35,0.16-0.7,0.17-1.06c0.07-1.55,0.12-3.1,0.19-4.66c0.02-0.46,0.12-0.91,0.17-1.36
		c0.22-2.02,0.43-4.04,0.64-6.05c0.08-0.77,0.12-1.55,0.23-2.32c0.23-1.61,0.49-3.22,0.73-4.83c0.05-0.35,0.07-0.71,0.1-1.07
		c0.13-1.72,0.22-3.45,0.38-5.17c0.12-1.32,0.35-2.64,0.47-3.96c0.14-1.55,1.35-2.67,3.03-2.59c2.92,0.15,5.86,0.07,8.78,0.1
		c0.6,0.01,1.19,0.05,1.79,0.09c0.87,0.07,1.31-0.21,1.58-1.04c0.06-0.17,0.11-0.35,0.13-0.52c0.23-2.23,1.01-4.31,1.87-6.34
		c0.56-1.34,1.53-2.51,2.34-3.73c1.23-1.85,3.01-3.16,4.64-4.62c0.59-0.52,1.29-0.95,2-1.3c1.34-0.66,2.68-1.26,4.13-1.69
		c1.62-0.48,3.25-0.78,4.92-0.83c2.05-0.06,4.11-0.12,6.06,0.75c0.12,0.06,0.27,0.09,0.41,0.09c1.17-0.05,2.16,0.43,3.11,1.05
		c0.48,0.31,1.06,0.45,1.56,0.73c3.14,1.78,5.74,4.16,7.59,7.27c0.88,1.48,1.68,3.04,2.27,4.65c0.53,1.42,0.75,2.96,1.05,4.46
		c0.15,0.75,0.43,1.04,1.19,1.04c2.65-0.02,5.3-0.03,7.95-0.06c0.94-0.01,1.87-0.09,2.81-0.08c2.33,0.05,3.03,0.8,3.29,3.18
		c0.16,1.48,0.46,2.94,0.7,4.4c0.04,0.24,0.12,0.47,0.13,0.7c0.09,1.99,0.13,3.98,0.26,5.97c0.08,1.15,0.34,2.28,0.48,3.43
		c0.12,0.99,0.18,1.98,0.29,2.97c0.17,1.56,0.35,3.12,0.53,4.68c0.16,1.32,0.39,2.63,0.49,3.96c0.19,2.66,0.28,5.32,0.77,7.95
		c0.17,0.93,0.22,1.9,0.24,2.85c0.04,2.11,0.16,4.21,0.7,6.27c0.4,1.54,0.55,3.13,0.53,4.73c-0.01,1.49,0.02,2.98,0.1,4.47
		c0.09,1.78-0.7,3.24-1.54,4.7c-1.42,2.44-3.6,3.86-6.31,4.4c-1.41,0.28-2.88,0.37-4.33,0.38C62.64,85.5,52.91,85.48,43.19,85.48z
		 M42.64,80.24c9.58,0,19.17,0,28.75,0c0.62,0,1.24,0.01,1.85,0.04c1.65,0.07,3.21,0.03,4.6-1.18c0.82-0.71,1.47-1.43,1.58-2.48
		c0.12-1.15,0.41-2.32-0.08-3.47c-0.14-0.33-0.1-0.74-0.13-1.12c-0.16-2.12-0.28-4.25-0.47-6.37c-0.24-2.67-0.53-5.34-0.79-8.01
		c-0.06-0.59-0.03-1.2-0.11-1.79c-0.27-1.99-0.61-3.97-0.86-5.96c-0.18-1.44-0.24-2.9-0.38-4.34c-0.15-1.54-0.35-3.08-0.48-4.63
		c-0.13-1.55-0.19-3.1-0.3-4.65c-0.02-0.28-0.1-0.55-0.16-0.82c-0.23-1.19-0.54-2.37-0.67-3.56c-0.16-1.56-0.19-3.14-0.25-4.71
		c-0.06-1.31-0.66-1.87-1.96-1.85c-2.11,0.04-4.22,0.07-6.33,0.09c-0.26,0-0.52-0.01-0.77-0.06c-1.12-0.19-1.41,0.03-1.42,1.18
		c-0.01,2.03-0.04,4.07,0.03,6.1c0.04,1.08-0.13,2.04-0.69,2.96c-0.53,0.86-1.09,1.17-2.08,1c-1.28-0.22-2.44-1.82-2.41-3.31
		c0.02-1.39,0.04-2.79,0.05-4.18c0.01-0.84,0.04-1.67,0-2.51c-0.05-1.06-0.57-1.44-1.62-1.28c-0.37,0.06-0.75,0.1-1.13,0.1
		c-8.95,0.01-17.89,0-26.84,0c-0.32,0-0.64-0.01-0.95-0.05c-1.41-0.18-1.79,0.17-1.73,1.61c0.01,0.16,0.03,0.32,0.03,0.48
		c0.04,1.55,0.11,3.11,0.11,4.66c0,1.54-0.36,2.96-1.59,4.04c-0.54,0.48-1.13,0.58-1.77,0.35c-0.97-0.35-1.9-1.69-1.9-2.73
		c-0.01-2.21,0-4.42,0-6.63c0-0.38-0.01-0.76-0.09-1.13c-0.15-0.7-0.52-0.91-1.22-0.77c-0.35,0.07-0.71,0.16-1.06,0.16
		c-2.07,0-4.14,0-6.22-0.04c-1.64-0.03-1.71,0.02-1.86,1.63c-0.32,3.37-0.71,6.73-0.97,10.1c-0.13,1.65-0.16,3.29-0.5,4.92
		c-0.26,1.2-0.29,2.45-0.42,3.67c-0.1,0.95-0.19,1.9-0.27,2.85c-0.16,1.82-0.28,3.65-0.46,5.47c-0.16,1.68-0.39,3.35-0.56,5.03
		c-0.17,1.62-0.19,3.27-0.5,4.86c-0.37,1.92-0.61,3.84-0.67,5.8c-0.05,1.49-0.2,2.98-0.3,4.47c-0.12,1.72-0.1,3.39,1.32,4.67
		c0.1,0.09,0.19,0.21,0.27,0.32c0.47,0.64,1.09,0.96,1.89,0.96c1.21,0.01,2.43,0.08,3.64,0.08C23.39,80.24,33.01,80.24,42.64,80.24z
		 M42.76,5.61c-1.59,0.24-3.62-0.14-5.34,1.08c-0.08,0.06-0.18,0.08-0.28,0.1c-1.22,0.26-2.18,1.04-3.21,1.67
		c-1.96,1.2-3.19,3.08-4.4,4.96c-0.42,0.65-0.96,1.25-1.24,1.96c-0.48,1.24-0.8,2.54-1.18,3.82c-0.26,0.88,0.23,1.46,1.14,1.38
		c0.46-0.04,0.91-0.09,1.37-0.09c8.48,0.01,16.97,0.02,25.45,0.03c0.85,0,1.71-0.01,2.56,0.06c1.24,0.1,1.65-0.38,1.24-1.54
		c-0.32-0.9-0.74-1.78-0.95-2.7c-0.22-0.98-0.56-1.85-1.17-2.64c-0.86-1.14-1.63-2.36-2.56-3.45c-1.26-1.48-3.04-2.27-4.68-3.25
		C47.53,5.79,45.31,5.67,42.76,5.61z"/>
</g>
</svg>
