<?xml version="1.0" encoding="utf-8"?>
<!-- Generator: Adobe Illustrator 27.0.0, SVG Export Plug-In . SVG Version: 6.00 Build 0)  -->
<svg version="1.1" id="Layer_1" xmlns="http://www.w3.org/2000/svg" xmlns:xlink="http://www.w3.org/1999/xlink" x="0px" y="0px"
	 viewBox="0 0 50 50" style="enable-background:new 0 0 50 50;" xml:space="preserve">
<style type="text/css">
	.st0{fill:#434343;}
</style>
<path class="st0" d="M5.3,19.6c1.8,0.1,3.5,0.7,4.9,2c2.8,2.5,5.6,5,8.4,7.4c0.4,0.4,0.8,0.8,1.3,1.2c0.9,0.9,1.6,1,2.4,0.1
	c1.2-1.4,2.2-2.9,3.3-4.4c2.6-3.3,5.2-6.5,7.8-9.7c1.2-1.6,2.3-3.2,3.5-4.8c1.3-1.6,2.5-3.3,4-4.8c2.5-2.6,6.2-2,8.1,1
	c1.5,2.4,1.3,4.5-0.5,6.9c-4,5.2-8,10.4-12.1,15.6c-3.1,4.1-6.3,8.1-9.5,12.2c-1,1.3-2,2.5-3,3.8c-0.7,0.9-1.4,0.9-2.2,0.1
	c-0.7-0.7-1.3-1.5-2-2.1c-3-2.5-6-4.9-9-7.4c-0.1-0.1-0.2-0.2-0.4-0.3c-3-2.7-5.9-5.4-8.8-8.1c-1.5-1.4-1.9-3.9-1-5.8
	C1.5,20.6,3,19.4,5.3,19.6z"/>
</svg>
