<?xml version="1.0" encoding="utf-8"?>
<!-- Generator: Adobe Illustrator 27.0.0, SVG Export Plug-In . SVG Version: 6.00 Build 0)  -->
<svg version="1.1" id="Layer_1" xmlns="http://www.w3.org/2000/svg" xmlns:xlink="http://www.w3.org/1999/xlink" x="0px" y="0px"
	 viewBox="0 0 500 300.6" style="enable-background:new 0 0 500 300.6;" xml:space="preserve">
<path d="M250.1,199.7c0.6-0.7,1-1.2,1.5-1.6c62.2-62.2,124.4-124.3,186.5-186.5c6.3-6.3,13.7-10.4,22.6-11.2
	c11.2-1.1,21.1,2.3,29.1,10.4c7.4,7.5,10.8,16.7,10.3,27.2c-0.5,9.4-4.5,17.3-11.1,24C427.8,122.8,366.9,183.7,306,244.6
	c-18.2,18.2-36.5,36.5-54.7,54.7c-0.4,0.4-0.8,0.8-1.2,1.3c-0.5-0.5-0.9-0.8-1.3-1.2C169.6,220.2,90.4,141,11.1,61.7
	C2,52.6-1.7,41.7,0.7,29.1C3.1,16.5,10.5,7.3,22.6,2.7c14.7-5.6,27.9-2.5,39.1,8.6C123.9,73.4,186,135.6,248.2,197.8
	C248.8,198.3,249.3,198.9,250.1,199.7z"/>
</svg>
