<?xml version="1.0" encoding="utf-8"?>
<!-- Generator: Adobe Illustrator 27.0.0, SVG Export Plug-In . SVG Version: 6.00 Build 0)  -->
<svg version="1.1" id="Layer_1" xmlns="http://www.w3.org/2000/svg" xmlns:xlink="http://www.w3.org/1999/xlink" x="0px" y="0px"
	 viewBox="0 0 1281.4 558.1" style="enable-background:new 0 0 1281.4 558.1;" xml:space="preserve">
<path d="M11.1,514.2v11.2h47.1c-4.7-3.5-9.1-7.3-13.4-11.2H11.1z"/>
<path d="M1280.4,514.4h-24.5c-6.8,1.3-11.9,7.1-12.4,11h36.9L1280.4,514.4L1280.4,514.4z"/>
<path d="M11.1,558.1h1269.1v-23.7H464c-20.9,10-47.3,9.5-68,0H148.2c-23.4,10.3-50.4,10.2-73.8,0.1l-63.3-0.2L11.1,558.1L11.1,558.1
	z"/>
<path d="M368.5,514.2H176.8c-0.7,1.3-9.4,8.9-13,11.2h216.8C376.2,522.2,372.1,518.4,368.5,514.2z"/>
<path d="M32.9,426.2c-2.3,7.5-3.6,15.3-3.7,23.2c1.3,45.2,39,80.9,84.2,79.6c43.4-1.2,78.3-36.1,79.6-79.6c0-9.7-2-18.9-5.1-27.5
	c9.4-1.6,18.7-3.6,27.7-6.2c4.3-1.2,4.1-3.1,0.8-4.1c-12.1-3.7-25-6.6-38.2-9c-15.3-22-40.3-35.1-67.1-35.1
	c-10.5,0-20.5,2.1-29.7,5.8c-0.1-0.1-0.3-0.3-0.3-0.3c-3.8-6.8-4.1-15-1-22.1c8.3-13.6,26.8-18.9,42-20.2c5.1-0.3,17.4,0.3,18.7,1.8
	c3,2.4,8.1,3.2,13.5,1.3c5.2,2,6.5,3.5,12.5,5.4c52.2,17.8,110,27.2,168.4,16.5c9.1,8.6,14.2,23.8,20.6,34.3c1.7,2.6,3.8-2,32.6-3
	c10.1-0.4,22.6-0.3,33.4-0.1c-22.4,2.6-41.7,15.2-53.1,33.3c-18,5.7-31.9,11.2-37.1,14.4c-6.4,3.9-7.6,6,0,8c9.2,2.4,18.1,4,26.9,5
	c-0.6,3.6-1.1,7.3-1.1,11.1c0,40.1,32.5,72.7,72.7,72.7s72.7-32.5,72.7-72.7c0-12.5-3.5-24.2-9-34.4c9.2-3.3,18.8-6.9,29-10.9
	c7.9,2.9,13.3,7.6,18.9,14.2c4.6,5.2,15.1,3.2,21.3,1.6c10.1-2.6,11.6-10.6,11.5-19.8c0-4.2,0.2-8.2,2.2-11.5
	c11.8-26.8,58.8-30.3,82.9-36.2c0,0-12.6,15.2-21.6,18.5c-1.8,39.1-16.8,73.2-18.6,110.5c11.4,0.5,10.9,13.2,13.6,20.4
	c-3.2,6.9-8.6,0-13.6,2.3c-17.3-9.6,4.1-25-10-36.8c7.2-31.3,19.1-61.8,18.1-95c-4.5,0.5-6.3,5.5-8.1,9.1
	c-3.2,31.4-12.3,60-20.4,89.1c3.6,1.8,10,3.6,9.6,9.1c-10.9,6.8,0.4,17.8-4.1,25.6H492.1l-12.5,11.2h172.1l1.6-6.3
	c-25.4-26.4-15.8-65.9-4.1-95.9l29.5-40c24.6-9.6,39.5-39.5,65.4-49.1c0,12.8-15.9,18.2-24.6,25.5c-9,21.4-37.7,23.6-41.8,47.3
	c10.9,12.7,27.2,20.9,40.9,32.7c14.1,8.7,9,26.8,20.4,35.9c1.8,2.7,0,6.8-3.2,9.1c-12,2.9-11.6,10.9-4.4,17.7
	c4.6,4.3,9.9,9.9,9.3,12h-79.4c0,3.6,3.2,5,6.7,11.2h438.6c3.3-6.2-3.9-13.5-6.9-19.6c-31-11.7-30.8-41-32.6-73.3
	c0.3-1.3-1.8-4.4-1.4-11c-4.6-4.3-25-56.2-15.7-96.8l6.8-13.3c6.4-9.1-0.4-14,4.1-23.5l92.4-17.9c1.6-0.9,1.2-4.6-0.5-6.3l-28.1,5.2
	c-22.3-9.4-55-30.2-76.6-58.3c6.7-45.7,3.4-82.7-1.2-107.4c13.5-11.2,24.5-21.8,24.5-21.8c9.3,5.6,11.3,3,12.6-0.1
	c-1.5-1.7-15.3-7.6-13-13.6c8.7,2.3,10.7-0.4,12-5.3l-6.1-2.2h-0.2l1-3.3c1.8-3.6,10-0.2,13.2-1.1c5.5-3.4-0.7-8.4,1.2-13
	c-12.9-10.9-36.1-11.2-50.1-21.3c-4.3-8.1-6.1-11.5-10.7-14.8c-4.7-3.3-25-5.2-28.8-4c-3.7,1.3-10.9,8-10.9,8
	c-14.6,3.1-23.4-1.6-33.4-7.7c0,0,2.1,11.5,13.6,16.4c-10.1,4.2-14.6,12.7-16.3,23.5c-14,2.8-14.5,16.7-12.7,23.1
	c-11.4,6.8-10.3,15.9-6.3,25c-10.2,6.9-8.7,16.7-5.8,24.3c-8.6,5.3,0,19.9,1.3,28.5c24.6-5.1,55.4,49.3,99.5,56
	c8.3-38.8-2.1-57.8-11.7-76.9c7.2-4.2,15-10,22.6-16c4.4,24.6,7.6,60.1,2.6,100.7c-0.3-0.3-0.7-0.6-0.9-0.9c-2.8,0-5.5-1.8-7.8-2.7
	c0.5,1.3,5.5,9.4,4.5,10.9c0,0-14.3,9.5-42.7-2.5c-7.6,17.7-105,61.3-105,61.3c3.6,26.9,16.4,44.8,29.6,59.3
	c20.9,15.5,43.3,23.5,69.7,28.9c5.5,14.3,23.4,61.9,25,69.5c1.8,7.6,6,7.6,6,7.6c2.5,3.4,10.9,18.6,11.8,25.9l2.1,25.7
	c0.9,5.9,8.6,1.4,10,6.5l-3.6,17.3l-291.8,0.1c4.1-20.4-6.3-38.3-0.9-56.5c-11.7-20.4-43.6-34.5-38.2-61.4
	c15.5-21.4,63.6-42.2,52.7-68c43.7-22.2,66.8,14.8,108.2,12.1c14.4-0.8,30.5-2.4,43.7-6.3c-16.3-14.2-32-35-40.2-53.6
	c-86.8,34.9-171.2,63.7-265.3,82.8l-7.2-2.3c-7.2,1.1-110.8,24.4-138.3,35.1c-7.2-4.3-15.1-7.4-23.4-9h2.4c8.8,0,22.2-4.7,31.8-8
	c40.3-14.7,55.1-72,73.2-108.5c15.8,56.7,52.5,61.3,73.8,54.2l2,17.8c0,0,18.6-0.7,32.6-6.3c-1.4-3.4-3.3-12.4-4.6-24.2
	c8.5-4.4,13-7.6,16.9-9.8c1.2,13.4,2,26.1-2,33l47.9-12.8c9.2-41.4,34.3-99,78.5-141c-59.4-23.6-103.9,3.4-115.2,14.2
	c-55.9,17.9-58.2,95-56.5,121.6c-9.7,1.9-50.4,16-69.6-54.4c11.2-27,32.5-57.1,56.4-80.5c2.1-1.7-0.3-4.5-5.1-1.7
	c-48,33-65.6,91-91.4,139.9c-20.2,30.4-47.6,46.9-88.5,45.1c-51.1-0.8-75.9-54.1-99.3-88.8c-35.9-78.7-128.9-50.4-197.9-67.2
	c-3.9-2-11.5-24.7-22.5-23.9c-7.8,0.6-0.5,8.6-4.9,11.3c-8.7-3.6-15.9-10-26.8-8.2c-6.8,1.4-8.7,8.6-8.2,15
	c5.4,25,32.2,35.9,52.2,45c7.7,11.5,4.8,51.1-1.6,64.7c-8.2,15.2-40.6,9.8-47.1,44.5c-1.3,7.1,0.3,13.2,3.2,18.9
	C60.4,384.2,49.7,394,42,406c-13.7,3.3-27.2,7-39.7,11.5c-3.3,1.2-3.3,3.1,1,4.1c9.7,2,19.6,3.6,29.6,4.9L32.9,426.2z M1056.2,231.7
	c11.9,13,40.2,32.6,58.3,39.1l-52.5,9.7C1068,258.2,1047.8,249.7,1056.2,231.7L1056.2,231.7z M1061.9,51.6c2-0.8,7.5,1.3,9.8,1.9
	c1.4,0.3,0.9,3.3,0.2,5.9c-3.4,0.7-8.8-1.2-9.5-3C1061.4,54.5,1060,52.5,1061.9,51.6L1061.9,51.6z M1062.3,65.1
	c0.7,3.9,2.2,8.2,4.5,11.5c-0.1,1.8-9.8,10.8-21,20.3c-2.8-13.7-5.6-23.2-6.3-27C1044,66.8,1056.1,63.4,1062.3,65.1z M1012.1,16.9
	c2-0.7,6,0.7,7.1,1.4c1.1,0.8,0.2,4.2,0.1,5.3c0,1.1-5,3.5-5,3.5s-4.7-3.6-4.7-4.7l-0.2-0.1C1010.1,20.5,1011.1,18.7,1012.1,16.9z
	 M1018.2,118.5c-6.2-12.5-11.2-25.8-9.9-45.1c6-0.1,14.7,3.8,26.2-1.4c0,0,3.6,10.7,7.1,28.3
	C1033.1,107.5,1024.2,114.4,1018.2,118.5z M939.6,336.4c-18.8-9.4-7.1-1.5-1.6-5.6c29.8,13.7,44.8,10.5,67,7.8
	c3.2,4.1,7.6,7.9,7.6,13.3C985.3,359.7,964.2,349.6,939.6,336.4L939.6,336.4z M1046.8,483c-1.7-14.4-2.6-24.6-9.2-31.5
	c-5.3-14.4-20.6-54.3-31.4-90.3c6.6-6.5,11.7-3.1,16.1,14.8c4.2,14.4,9.2,26.4,13,38.4c5.1,12.1,8.9,28.3,12.8,36.8
	c0,0,3.4,0.6,5.3,5.2c9.6,26.7,12.1,31,10.4,43.7c2.3,10,16.3,1.8,15.1,14.2h-29.8l13.1-0.1C1053.2,504.5,1059.6,490.3,1046.8,483
	L1046.8,483z M465.8,506.9c-8.2,6.2-18.1,10.1-28.9,11.3c-1.1-0.3-2-2.5-2-3.8l-1.7-37.1c-0.1-0.4,0.6-0.8,1-1
	c0.9-0.3,3.5-1.3,4.5-1.9c0.4-0.2,1.4-0.3,1.7,0l24.4,28.3C465.6,503.7,466.4,506,465.8,506.9L465.8,506.9z M428.1,518.8
	c-9.9-0.3-19.1-3.1-27.3-7.6c-0.7-0.9-0.4-3.4,0.3-4.4l20.4-31c0.2-0.3,1-0.3,1.4-0.2c0.9,0.3,2.9,0.8,4,1c0.5,0,1.3,0.7,1.3,1.1
	l1.8,37.2C430.2,516.1,429.1,518.4,428.1,518.8L428.1,518.8z M376.7,441.4c-1.3-0.4-3.3-2.2-3.2-3.3c1.9-5.1,4.3-10,7.4-14.4
	c4.9-1.4,10.1-2.8,15.2-4.1l16.5,20.8l-0.8,0.1c-10.7,1.3-20.7,2-30.1,2.1L376.7,441.4L376.7,441.4z M423.1,398.9c1,0.4,2,2.5,2,3.8
	l0.2,2.9c-9.9,1.9-19.6,4.1-28.9,6.4c-0.6-1.2-0.9-2.6-0.4-3.3C403.8,403.4,413.1,400.1,423.1,398.9L423.1,398.9z M417.8,439.4
	l-16.7-21c8.1-2,16.3-3.8,24.5-5.4l1.1,24.6C423.4,438.4,420.6,438.9,417.8,439.4L417.8,439.4z M416.3,446c-0.1,0.2,0,0.5-0.1,0.7
	c-0.8,1.1-1.5,2.3-2.1,3.5c-0.2,0.4-1,1.1-1.5,1l-12-3.3C405.6,447.4,410.9,446.9,416.3,446L416.3,446z M438.4,441.5
	c-0.2,0.3-1,0.3-1.5,0.2h-0.2l1.7-0.4L438.4,441.5L438.4,441.5z M431.4,436.4l-1.2-24.3c10.1-1.9,20-3.5,29.5-4.6
	c-0.1,1-0.4,2-0.9,2.9l-14.9,22.7C439.5,434.4,435.4,435.4,431.4,436.4L431.4,436.4z M462.8,413c0.7-1.1,2.8-2.3,3.9-2.1
	c4.3,3.4,8.2,7.2,11.5,11.6c-8.9,3-18.1,5.8-27.3,8.6L462.8,413L462.8,413z M429.9,404.7l-0.1-2.3c-0.1-1.4,1-3.8,2-4.1
	c6.3,0.2,12.2,1.4,17.8,3.3C443.1,402.5,436.5,403.5,429.9,404.7L429.9,404.7z M429.1,398.3c0.3,0,0.6-0.1,0.9-0.1l0.8,0.1
	L429.1,398.3L429.1,398.3z M342.8,439.3c-3.2-1-2.5-2-0.5-2.8c6.5-2.6,13.8-5.1,21.4-7.6c-1.9,4.2-3.3,8.6-4.4,13.2
	C353.7,441.7,348.2,440.7,342.8,439.3L342.8,439.3z M370.6,448.7c4.9,0.3,9.9,0.2,14.9,0.1l25.6,7c0.3,0.1,0.6,0.9,0.6,1.3
	c0,1,0.2,3.6,0.5,4.8c0,0.5-0.3,0.8-0.7,1l-34.1,15.1c-1.3,0.5-3.7,0.5-4.5-0.4c-2.1-6.1-3.3-12.5-3.4-18.9c0-3.4,0.5-6.7,1-9.9
	L370.6,448.7z M374.4,482.2l-0.1-0.2C374.3,482,374.4,482.1,374.4,482.2z M376.3,485.6c0-1.1,1.8-2.8,3-3.4l34.3-14.3
	c0.3-0.2,1,0.3,1.3,0.7c0.6,0.7,1.5,1.8,2.3,2.6c0.4,0.3,0.7,1.3,0.5,1.6l-20.4,31.2c-0.7,1.1-3,2.3-4,2
	C386.1,500.6,380.3,493.6,376.3,485.6L376.3,485.6z M396.6,508.8c-0.3-0.2-0.6-0.4-0.9-0.6L396.6,508.8L396.6,508.8z M429.9,518.9
	L429.9,518.9L429.9,518.9z M472.7,501.2c-1,0.6-3.5-0.7-4.4-1.6L444,471.3c-0.3-0.3-0.1-1,0.2-1.4c0.7-1,1.2-2,1.7-3
	c0.2-0.4,1-1.1,1.5-1l35.9,10c1.1,0.3,3,1.5,3.4,2.6C483.7,487,479,494.8,472.7,501.2L472.7,501.2z M489.1,470.2
	c-0.6,1-3.3,1.3-4.6,1l-35.8-9.9c-0.4-0.1-0.7-0.9-0.7-1.3c0-1.4-0.1-2.8-0.3-4.1c-0.1-0.5,0.2-1.4,0.6-1.6l34.7-13.2
	c1.2-0.5,3.6-0.2,4.4,0.6c1.5,5.4,2.6,11,2.6,16.9C490.2,462.5,489.8,466.4,489.1,470.2L489.1,470.2z M484.5,433.1
	c0,1.2-1.8,3-3,3.5l2.3-0.8l-37,13.9c-0.4,0.2-1-0.3-1.3-0.7c-0.8-1.1-1.7-2.2-2.6-3.2c-0.4-0.3-0.7-1.3-0.6-1.6l3.2-4.8
	c11.3-3,23.4-6.8,36.2-11.2C482.8,429.8,483.8,431.4,484.5,433.1L484.5,433.1z M581.1,380.1c-16.1,11.6-8.5,25.3-18.5,28
	c-3.6-0.5-23.9,3.2-27,4.6c-6.8-6.4-13.8-11.7-24.3-14.5C531.3,390,562.9,381.9,581.1,380.1L581.1,380.1z M515.7,408.9
	c-3.5,1.6-12.7,5.2-25.1,9.6c-3.1-4.6-6.7-8.9-10.8-12.7C495.3,404.9,508,405.7,515.7,408.9L515.7,408.9z M689.3,205.3
	c-24.3,24.5-21.2,61-18.4,89.7c-5.6,4.1-12.5,7.5-17,10C651.3,269.8,655,217.2,689.3,205.3L689.3,205.3z M80.6,217.7
	c-4.1-5.5-10.1-13.8-5.4-19.5c3.4-4.2,10.4-0.9,14.5,0.9c3.5,1.8,30.7,16.5,38.1,18.5c55,13.7,124.6-6.5,168.2,33.1
	c2.1,2,3.7,3.9,3.2,6.6C235.2,213.6,138.8,278.1,80.6,217.7L80.6,217.7z M132.4,288.1c4.5,2.7,6.4,10,11.4,14.1
	c8.2,13.6,23.6,18.2,31.8,30c-2.8,0.2-5.5,0-8.2-0.6c-5.3-1.1-7.4-2.6-11.9-4.6c-2.4-3.9-8.3-5.1-13-2.6c-3.7,0.7-14,0.2-20.9-1.6
	C122.8,311.8,133.4,301.3,132.4,288.1L132.4,288.1z M68.3,405.8l16.7,18.6c-12.1-0.1-23.8-0.7-34.9-1.4c-0.9-1.2-1.3-2.3-1.1-3
	c2.1-4.5,4.7-8.6,7.7-12.5C60.5,406.8,64.4,406.4,68.3,405.8L68.3,405.8z M167.6,410.4c2,3,3.7,6.1,5.3,9.4
	c-8.2,1.2-17,2.1-26.2,2.9l13.1-11.2C163,408.8,166.7,409.4,167.6,410.4L167.6,410.4z M156.1,407.5l-18.6,15.8
	c-4.7,0.3-9.6,0.5-14.4,0.7l7.6-21.6c9.4,0.3,18.6,1,27.1,1.8C157.4,405.4,157,406.6,156.1,407.5L156.1,407.5z M151.5,504.6
	c-6.6,4.8-14,8.4-22.1,10.6c-1.4-0.2-4.2-2.4-5-5.7l-7.2-39.3c-0.1-0.5,0.1-1.1,0.6-1.3c1.4-0.5,2.7-1.1,4-1.8
	c0.4-0.3,1-0.1,1.3,0.3l26.9,29.5C152.5,499.9,152.4,503.4,151.5,504.6L151.5,504.6z M94.6,435c0.3,0.3,0.5,1.1,0.2,1.4
	c-0.8,1-1.1,1.3-1.8,2.5c-0.2,0.5-0.8,0.5-1.3,0.3l-29.9-10.7c9.2,0.5,18.5,0.8,27.8,0.8L94.6,435L94.6,435z M124.3,433.5
	c-0.9-0.8-1.9-1.5-3-2.1c-0.5-0.3-0.7-0.7-0.5-1.2l0.6-1.5l10.4-0.5l-6.3,5.3C125.2,433.7,124.7,433.9,124.3,433.5L124.3,433.5z
	 M117.2,424.1c-2.6,0.1-5.1,0.2-7.7,0.3h-0.1l-4.1-22.1c1.3-0.1,2.5-0.2,3.8-0.3c5.4,0,10.7,0.2,16.1,0.3L117.2,424.1L117.2,424.1z
	 M99.8,402.7l4,21.7c-3.8,0.1-7.6,0.1-11.4,0L74.6,405C82.8,404,91.1,403.2,99.8,402.7L99.8,402.7z M104.3,429.4
	c-0.1,0.1,0,0.4-0.2,0.5c-1.4,0.5-2.7,1.1-4,1.9c-0.5,0.3-1,0.1-1.3-0.3l-1.8-2C99.4,429.4,101.9,429.4,104.3,429.4L104.3,429.4z
	 M47.6,422.8c0.1-0.3,0.3-0.6,0.4-0.9C47.9,422.2,47.7,422.5,47.6,422.8L47.6,422.8z M44.5,432.7c0.8-1.2,4.3-2.7,7.6-1.6l37.7,13.4
	c0.4,0.1,0.8,0.7,0.7,1.2c-0.2,1.2-0.3,2.5-0.3,3.7c0,0.5-0.4,0.8-0.9,1L50,457.7c-3.9,0.6-6.6-1.3-7.2-2.6c-0.2-2-0.6-3.8-0.6-5.8
	C42.3,443.5,43.1,438,44.5,432.7L44.5,432.7z M45.2,468.1c0.1-1.5,2.4-4.4,5.8-5.2l39.2-7.2c0.5-0.1,1,0.2,1.2,0.7
	c0.4,1.1,0.5,1.6,1.3,2.8c0.2,0.5,0.1,0.9-0.3,1.3l-31.2,25.1c-3.4,2.5-6.9,2-7.7,1C49.8,480.9,47,474.6,45.2,468.1z M54.6,488.4
	c-0.3-0.4-0.7-0.8-0.9-1.3C53.8,487.5,54.2,488,54.6,488.4L54.6,488.4z M61.9,497.4c-0.7-1.1-0.2-5.3,2.6-7.6l31.2-24.9
	c0.3-0.5,0.9-0.6,1.3-0.2c0.9,0.8,2.3,1.9,3.5,2.5c0.5,0.3,0.7,0.7,0.4,1.3l-13.5,37.6c-1.5,3.8-4.5,5.3-5.8,5
	C74.2,507.7,67.6,503,61.9,497.4L61.9,497.4z M84.7,512.8c-0.4-0.1-0.8-0.3-1.2-0.5L84.7,512.8L84.7,512.8z M94.2,515.8
	c-1.3-0.8-3-4.2-1.9-7.5l13.6-37.8c0.1-0.5,0.6-0.8,1.1-0.7c1.2,0.2,2.3,0.3,3.7,0.3c0.6,0,0.9,0.5,1,1l7.3,39.4
	c0.6,3.8-1.2,6.3-2.5,7.1c-1.8,0.1-3.7,0.6-5.6,0.6C105.1,518.1,99.6,517.2,94.2,515.8L94.2,515.8z M159.1,498.3
	c0.3-0.3,0.7-0.7,0.9-1C159.6,497.6,159.4,498,159.1,498.3z M161.5,495.5c-1.2,0.8-5.1,0.5-7.6-2l-26.7-29.8c-0.3-0.3-0.5-1-0.1-1.4
	c0.7-0.8,1.3-1.6,1.7-2.6c0.2-0.5,0.8-0.6,1.3-0.3l38.2,13.6c4,1.5,4.9,4.7,4.6,5.9c-3,6.1-6.8,11.7-11.3,16.6L161.5,495.5z
	 M173,478.3c0.6-1,1.2-2.6,1.8-4.2C174.3,475.5,173.7,476.9,173,478.3L173,478.3z M177.4,465.9c-0.5,1.3-4,3.1-7.5,2l-38-13.6
	c-0.4-0.1-0.8-0.7-0.8-1.2c0.2-1.3,0.3-1.8,0.3-3.2c0-0.5,0.5-0.8,0.9-1l40.1-6.3c4-0.5,6.5,1.4,6.9,2.7c0.1,1.3,0.3,2.6,0.3,4
	C179.7,455,178.8,460.5,177.4,465.9L177.4,465.9z M177.2,432.2c0,1.6-2.3,4.4-5.7,5.1l-39.9,6.3c-0.5,0.1-1-0.2-1.2-0.7
	c-0.4-1.4-1-2.7-1.6-4c-0.3-0.4-0.2-0.9,0.2-1.3l11.9-10.1c11.3-0.9,22.6-2.1,33.7-3.8C175.6,426.5,176.4,429.3,177.2,432.2
	L177.2,432.2z M197.8,411.6c2.6,0.8,3.5,2.5,0.2,3.4c-3.4,0.9-7.6,1.6-11.5,2.5c-1.5-3.5-3.5-6.7-5.4-9.9
	C187.3,408.8,192.9,410,197.8,411.6L197.8,411.6z M132.6,397l1.6-4.7c1.5-3.8,4.6-5,6.1-4.8c6.4,3.1,12.3,7.1,17.5,11.9
	C149.4,398.2,141,397.4,132.6,397L132.6,397z M127.4,382.8c1.2,0.9,2.8,4.4,1.8,7.7l-2.2,6.3c-6.1-0.3-12.1-0.6-18.2-0.5
	c-1.6,0-3.1,0.3-4.7,0.3l-1.5-8.4c-0.6-3.9,1.2-6.4,2.6-7c2-0.2,3.8-0.6,5.8-0.6C116.6,380.5,122.1,381.4,127.4,382.8L127.4,382.8z
	 M92.2,383.4c1.5,0.2,4.3,2.4,5.1,5.8l1,5.4c-3.4-3.1-6.5-6.5-9.3-10.1L92.2,383.4L92.2,383.4z M89.9,397.7
	c-6.4,0.6-12.8,1.3-19,2.3c-1.3-2.6-1.4-4.9-0.7-5.8c3.1-2.3,6.5-4.3,10.1-6.1C83.1,391.3,86.3,394.6,89.9,397.7z M20.6,416.2
	c5.1-1.8,11.4-3.6,18.3-5.2c-1.8,3.4-3.4,6.9-4.8,10.5c-4.7-0.6-9.6-1.1-13.5-1.8C17.3,419.1,18.1,417.2,20.6,416.2L20.6,416.2z
	 M1230.2,221.1c-1.4,1.2-1.8,2.7-0.7,3c2.1,0.4,3.3,1.1,5.7,3.4c1.3,0.7,1-1.4,0.7-2.5C1234.5,221.7,1231.7,219.8,1230.2,221.1
	L1230.2,221.1z"/>
<path d="M1180.7,514.4h-64.8c-0.8,4.4,4.3,7.6,7.2,11h70.8l19.8-9.6c3.5-8.6-3.6-16.1-3.3-23.1c1.2-20.6-10.3-41.2-16.4-60.1
	c4-4.2,8.9-13.8,15.4-11.3c15.2,23.6,18,53.7,15.4,83.7c-1.5,7.4-14.2,14.2-13.8,21.2c0.2,2.4,16.8,1.4,23.7-4.4
	c1.2-4.8,10.1-10.7,13-11.4c3.2-9.1-1.8-8.8-1-14.2c1.6-3.8-0.5-44.7-3.4-49c-1.1-0.7-1.4-0.7-1.5-0.6c-3.2-8.1,4.5-20.5,7.6-28.2
	l22.6-2c-2.7-20.1-9.9-41-14.4-61.6c2.8-4.8,7.8-8.6,12.4-11.3c23.8-15.7,2.8-41.1,2-60.6c-4.1-10.1-18-18.1-19.3-29.3
	c2.9,2.2,5.1,1.3,5.7,1.5c6.8-4.7,6.5-11.4,3.1-19.9c10.3-12.3,16.7-18,18.6-21.9c-0.7-10.3-17.2-25.7-27-25.7
	c-5.7,3.2-9.6,9.6-20.1,17.7c-0.3,0.4-12.7-4.3-16.4-0.3c-3.6,3-2.4,12.5,4.3,17.7c-0.8,2.5-1.6,3.5-3,6.6c-0.7,1.5-1.1,3.1-0.1,4
	c2.2,2,3,5,1.4,9.8c-1.6,5,4,8.7,5.9,9.4c0.3,0.1,1,0.8,1.6,1.6c0.7,5.5-18.1,15.5-18.1,19.8c-1.5,13-9.6,11.7-17.4,54.2
	c1,10.3,0.9,19.4,0.1,27.6c-9.6,25.4-17.5,40.1-24,58.5c-5.4,15.2,24.9,59.1,25.4,89C1186.4,512.8,1181.2,511.4,1180.7,514.4
	L1180.7,514.4z M1229.9,468.8c-1.5-4.1-2.8-9.8-2-14c2.6-2.5,7.6-0.7,10.1-1.1C1241,467.9,1241.8,469.9,1229.9,468.8L1229.9,468.8z
	 M1230.2,259.3c0.9-0.7,1.6-2.8,2.1-3.5c10-6.4,3.1-1.8-6.8-7c-3.2-1.6-3.3-4.7-2.9-9.1c0.6-5.4-1.6-6.5-2.5-8.2
	c-0.3-0.7,1.2-3.4,2.5-5.3c2.3-3.5,4.4-10.7,5.5-12.5c16.5,0.7,12.9,8,13.3,9.3c1.3,3.6,8.2,11.2,11.6,13.6c-1,10-8.8,4.1-5.3,13.2
	c-0.9,17.3-21.5,15.2-30.3,29.4C1216.4,265.1,1228.8,265.1,1230.2,259.3L1230.2,259.3z M1211.4,334c4.5,4.1,9.2,9.2,12.7,10
	c2.4,5.9-4.9,6.8-7.6,9.6c-6.2,0.9-8.5-5.6-12.1-2.6c-0.8,0.7-4.5-0.1-4.4-0.8C1201.9,344.8,1207.4,337.2,1211.4,334L1211.4,334z
	 M1172.3,422.3c-2.3-12,13.6-30.6,24.3-67.2c4.3-1.5,6.7,8.5,12.9,4.6c9.6,0.2,5.5,25.1,14.4,9.3c-0.2-7-0.4-14.8,5.1-18.6
	c6-1.4,9.9,2,10.3,7.2L1230,372c17.5,0.7-5.6,28.7,17.5,23.6c-0.8,10.5-6.4,40.1-10.5,38.6c-3.2-16.4-5.7-9.6-5.7-4.7
	c0.7,6.4,0.5,11.5,4.3,16.7c-1.3,1.3-5.9,1.2-7.2,1.5c-13-18.6-12.5-44.2-20.9-64.4c-1.4-0.1-3.2,1.6-3.1,3.1
	c-1,12.2-5.7,29.8-15.8,35.6c-6.3,3.7,13.8,1.4-2.6,9.2c6.3,4.2,0.5,9.8-6.4,9.8C1176,433.6,1173.4,427.5,1172.3,422.3L1172.3,422.3
	z M1189.6,462.7c-2.4-2.8-6-10.8-7.5-14.2l9.6-4c3,3.3,5.9,9.4,6.4,14.8C1195.9,460.5,1192.9,462.4,1189.6,462.7z M882,266.3
	c-1.4-19.4,6.6-35.9-2.5-56.7c0.1-8.6,6.1-15.2,4.5-23.1l-14.7,3.6c-2.2,16.3-4.9,21.7-2.7,37.1C870.4,244.8,872.4,260.9,882,266.3
	L882,266.3z M729.8,320.6c56.4-15.8,95.2-29.3,141.9-48.9c-19.4-41.5-15.2-53.5-13.5-80.1c0,0-23.7,0.3-51.3-7
	C774.2,205.7,736.1,281.2,729.8,320.6L729.8,320.6z M923.2,332.7C920.2,329.7,924.6,334.4,923.2,332.7z M990.9,206.8
	c-23.7-16.3-42.1-54.4-68-51.8c-2.5-28-14.7-75.6,24-125.7c5-2.3,13.2-3.2,16.3-6.9c-15.8-1.6-36.6,8.1-51.7-0.4c0,0,7,12.2,15.1,14
	c-5.3,7.2-15.7,12.4-9.4,25c-12.9,7.7-8,19.2-4.1,25.4c-6.5,6.7-10.4,18.6-1.8,25.9c-10.5,11.3,2.5,20.9,5.6,24.7
	c-5.3,11.3-0.2,20-0.2,20c-0.2,8.1-14.7,19.8-19.9,23.5c-6.3,19.1-3.9,57.6-2.9,83C929.2,246.8,963.8,230.7,990.9,206.8L990.9,206.8
	z"/>
</svg>
