<?xml version="1.0" encoding="utf-8"?>
<!-- Generator: Adobe Illustrator 27.0.0, SVG Export Plug-In . SVG Version: 6.00 Build 0)  -->
<svg version="1.1" id="Layer_1" xmlns="http://www.w3.org/2000/svg" xmlns:xlink="http://www.w3.org/1999/xlink" x="0px" y="0px"
	 viewBox="0 0 86 86" style="enable-background:new 0 0 86 86;" xml:space="preserve">
<g>
	<path d="M43,76.9c-13.2,0-26.5,0-39.7,0c-0.8,0-1.6,0-2.3-0.6c-0.8-0.8-1-1.7-0.7-2.7c0.3-1,1.1-1.6,2.2-1.7c0.2,0,0.4,0,0.5,0
		c26.6,0,53.2,0,79.9,0c1.5,0,2.3,0.6,2.8,1.8c0.5,1.4-0.5,3.1-2,3.2c-0.4,0-0.8,0-1.1,0C69.3,76.9,56.2,76.9,43,76.9z"/>
	<path d="M43,14.1c-13.3,0-26.6,0-40,0c-1.5,0-2.3-0.6-2.8-1.8c-0.5-1.4,0.5-3,2-3.2c0.4,0,0.7-0.1,1.1-0.1c26.4,0,52.9,0,79.3,0
		c0.5,0,1,0,1.4,0.1c1.2,0.4,1.9,1.4,1.7,2.7c-0.1,1.2-1.1,2.1-2.3,2.2c-0.2,0-0.5,0-0.7,0C69.5,14.1,56.3,14.1,43,14.1z"/>
	<path d="M43,45.5c-13.3,0-26.5,0-39.8,0c-1.1,0-2.2-0.3-2.7-1.4c-0.9-1.7,0.2-3.6,2.2-3.7c0.2,0,0.4,0,0.5,0c26.5,0,53,0,79.4,0
		c0.2,0,0.4,0,0.5,0c1.5,0.1,2.6,1.2,2.6,2.6c0,1.4-1,2.4-2.5,2.5c-0.2,0-0.4,0-0.7,0C69.4,45.5,56.2,45.5,43,45.5z"/>
</g>
</svg>
