<?xml version="1.0" encoding="utf-8"?>
<!-- Generator: Adobe Illustrator 27.0.0, SVG Export Plug-In . SVG Version: 6.00 Build 0)  -->
<svg version="1.1" id="Layer_1" xmlns="http://www.w3.org/2000/svg" xmlns:xlink="http://www.w3.org/1999/xlink" x="0px" y="0px"
	 viewBox="0 0 90 90" style="enable-background:new 0 0 90 90;" xml:space="preserve">
<g>
	<path d="M88.3,35.2c-0.8-2.6-2.2-4.9-3.4-7.4c-0.4-0.9-1.3-1.5-1.8-2.4c-1.7-3-4.4-5.1-7-7.1c-3.6-2.7-7.5-5-11.9-6.4
		c-3.6-1.2-7.3-2.4-11.1-2.7c-0.8-0.1-1.7-0.2-2.5-0.2c-2.2-0.2-4.4-0.8-6.5-0.5C40.2,9,36.3,9.1,32.4,9.9
		c-4.2,0.8-7.9,2.6-11.8,4.2c-1.7,0.7-3.1,2-4.7,2.9c-3.7,2.2-6.6,5.3-9.3,8.5c-2.1,2.6-3.4,5.6-4.6,8.7c-0.4,1.1-0.6,2.3-0.8,3.4
		C1,38.8,0.8,40,0.6,41.1C0.5,42,0.3,43,0.4,43.9c0.5,3,0.9,6,1.8,8.9c0.8,2.5,2.2,4.9,3.6,7.2c1,1.7,2.5,3.2,3.7,4.8
		c0.2,0.3,0.3,1.1,0.1,1.5c-1.8,3.1-3.6,6.2-5.5,9.3c-0.8,1.3-1.7,2.6-2.3,4c-0.2,0.5,0,1.4,0.4,1.7c0.4,0.4,1.2,0.3,1.8,0.3
		c0.4,0,0.8-0.3,1.2-0.5c2.6-0.8,5.1-1.6,7.7-2.5c2.8-0.9,5.7-1.7,8.4-2.9c2.2-1,4.1-1.2,6.4-0.1c1.7,0.8,3.8,1.1,5.8,1.4
		c3.7,0.6,7.3,1,11,1.5c0-0.1,0-0.2,0-0.2c2-0.1,4.1-0.2,6.1-0.4c1.4-0.1,2.8-0.4,4.3-0.7c1.6-0.3,3.1-0.9,4.7-1.1
		c2.7-0.3,5.1-1.6,7.5-2.5c3.5-1.4,6.6-3.5,9.6-5.8c3.8-2.9,6.9-6.4,9.1-10.7c0.9-1.7,1.3-3.6,2.2-5.3c1.3-2.6,1.3-5.4,1.5-8
		C89.8,41,89.1,38,88.3,35.2z M85.2,51c-1.2,3-2.7,5.9-4.6,8.5c-2.3,3.1-5.3,5.6-8.5,7.8c-3.6,2.5-7.6,4.2-11.7,5.5
		c-3.3,1.1-6.8,1.8-10.3,2C48,75,46,75.2,43.7,75.4c-3.2-0.4-6.5-0.6-9.8-1.4c-2.6-0.6-5.2-1.2-7.6-2.5c-0.7-0.3-1.7-0.4-2.4-0.1
		c-5.1,1.8-10.1,3.6-15.2,5.4C8.4,77.1,7.9,77,7.5,77c0.1-0.4,0-1,0.2-1.3c1.6-2.6,3.2-5.2,4.9-7.8c0.1-0.1,0.1-0.2,0.2-0.3
		c1.5-2.5,1.5-3-0.6-5c-3.5-3.3-5.7-7.4-7.4-11.9c-0.9-2.3-1.1-4.6-1.2-6.9c-0.1-2.3,0.5-4.7,1.1-7c0.5-2.1,1.3-4.1,2.3-6
		c1.2-2.1,2.8-4,4.4-5.8c2.6-2.8,5.6-5,8.9-7c3.2-2,6.7-3.4,10.3-4.4c3.5-0.9,7.1-1.7,10.8-1.9c4-0.2,7.9,0.4,11.8,0.2
		c0.2,0,0.4,0,0.6,0.1c2.4,0.6,4.9,1,7.2,1.9c3.7,1.6,7.5,3.1,11,5.3c3,1.9,5.6,4.2,7.8,6.9c2.4,2.9,4.6,6.1,5.4,9.9
		c0.5,2.2,1.2,4.5,1.2,6.7C86.3,45.5,86.3,48.3,85.2,51z"/>
	<path d="M66.4,34.9c-3.9-0.3-7.5,3.1-7.8,7.2c-0.3,3.9,3,7.6,7.2,7.9c5,0.2,7.6-2.6,8-6.9C74.1,38.7,71.3,35.3,66.4,34.9z
		 M68.5,46.4c-1.6,1-3.5,0.8-5-0.4c-1.5-1.2-2.2-3.3-1.7-4.9c0.4-1.5,2.9-3.3,4.5-3.2c1.7,0,3.8,1.9,4.3,3.9
		C71.1,43.1,69.9,45.5,68.5,46.4z"/>
	<path d="M45.1,35c-5-0.1-7.3,3.1-7.7,7c-0.4,4,3.1,8.1,7.6,7.9c4.5,0.2,7.3-3.2,7.6-7.6C52.9,38.5,49.3,35.1,45.1,35z M44.9,47.2
		c-1.9,0.1-4.4-2.5-4.4-4.4c0.1-2.9,2.1-5,4.9-5c2,0,4.1,2.2,4,4.4C49.6,45.6,47,47,44.9,47.2z"/>
	<path d="M23.6,35.1c-4.8,0-7.2,3.6-7.3,7.7c0.1,4,3.5,7.3,7.5,7.3c4.1,0,7.5-3.6,7.5-7.1C31.2,37.7,28,35,23.6,35.1z M23.8,47.2
		c-2.2,0-4.5-2.1-4.5-5c0-2,2.7-4.3,4.9-4.3c2.2,0,4.3,2.5,4.3,4.9C28.4,45,25.7,47.2,23.8,47.2z"/>
</g>
</svg>
