<?xml version="1.0" encoding="utf-8"?>
<!-- Generator: Adobe Illustrator 27.0.0, SVG Export Plug-In . SVG Version: 6.00 Build 0)  -->
<svg version="1.1" id="Layer_1" xmlns="http://www.w3.org/2000/svg" xmlns:xlink="http://www.w3.org/1999/xlink" x="0px" y="0px"
	 viewBox="0 0 70.87 70.94" style="enable-background:new 0 0 70.87 70.94;" xml:space="preserve">
<style type="text/css">
	.st0{fill:#444444;}
</style>
<path class="st0" d="M70.86,18.32c0.08,1.27-1.04,2.96-2.54,4.47c-6.04,6.04-12.08,12.07-18.12,18.11
	c-5.26,5.26-10.52,10.51-15.77,15.78c-2.91,2.92-5.79,5.88-8.68,8.83c-1.07,1.09-2.25,1.87-3.83,2.13
	c-3.77,0.62-7.52,1.36-11.28,2.05c-2.33,0.43-4.66,0.94-7.01,1.23c-2.72,0.34-4.21-1.97-3.43-4.61c0.74-2.51,1.02-5.15,1.51-7.73
	c0.43-2.23,0.88-4.46,1.31-6.68c0.18-0.9,0.43-1.81,0.47-2.72c0.05-1.48,0.8-2.57,1.76-3.53c14.28-14.3,28.57-28.59,42.87-42.87
	c0.55-0.55,1.13-1.1,1.76-1.54c2.7-1.89,6.11-1.55,8.46,0.8c3.27,3.27,6.55,6.53,9.82,9.8C69.69,13.35,70.78,15.09,70.86,18.32z
	 M56.02,26.76c-0.28-0.37-0.48-0.7-0.74-0.97c-0.98-0.98-2.01-1.92-2.99-2.9c-2.39-2.39-4.76-4.79-7.15-7.19
	c-0.5-0.5-0.95-0.98-1.68-0.24c-3.85,3.94-7.71,7.88-11.61,11.78c-6.34,6.33-12.72,12.63-19.1,18.92c-0.56,0.55-0.57,1.01-0.04,1.54
	c0.71,0.7,1.41,1.41,2.11,2.12c2.77,2.77,5.54,5.53,8.3,8.3c0.51,0.51,0.97,0.81,1.61,0.15c3.57-3.62,7.15-7.24,10.74-10.83
	c6.64-6.64,13.3-13.26,19.95-19.89C55.64,27.34,55.8,27.06,56.02,26.76z M65.15,17.45c-0.26-0.4-0.44-0.79-0.72-1.07
	c-3.31-3.32-6.64-6.62-9.97-9.92c-0.81-0.8-1.16-0.76-1.94,0.04c-1.04,1.07-2.08,2.13-3.16,3.16c-0.96,0.92-0.96,1.09-0.02,2.02
	c3.36,3.37,6.72,6.74,10.04,10.14c0.68,0.69,1.19,0.58,1.79-0.03c1.09-1.12,2.2-2.21,3.28-3.34C64.71,18.19,64.89,17.84,65.15,17.45
	z M8.24,64.04c0.01,0.02,0.01,0.04,0.02,0.07c1.18-0.22,2.37-0.43,3.55-0.65c1.91-0.37,3.83-0.75,5.74-1.15
	c0.32-0.07,0.63-0.23,0.94-0.35c-0.17-0.32-0.28-0.71-0.53-0.96c-2.63-2.65-5.28-5.28-7.94-7.9c-0.28-0.27-0.69-0.41-1.03-0.6
	c-0.11,0.36-0.22,0.71-0.32,1.07c-0.05,0.17-0.06,0.35-0.1,0.52c-0.62,3.06-1.26,6.11-1.84,9.18c-0.04,0.22,0.31,0.61,0.57,0.74
	C7.54,64.14,7.92,64.04,8.24,64.04z"/>
</svg>
