<?xml version="1.0" encoding="utf-8"?>
<!-- Generator: Adobe Illustrator 27.0.0, SVG Export Plug-In . SVG Version: 6.00 Build 0)  -->
<svg version="1.1" id="Layer_1" xmlns="http://www.w3.org/2000/svg" xmlns:xlink="http://www.w3.org/1999/xlink" x="0px" y="0px"
	 viewBox="0 0 50 50" style="enable-background:new 0 0 50 50;" xml:space="preserve">
<style type="text/css">
	.st0{fill:#444444;}
</style>
<g>
	<path class="st0" d="M5.8,22c0-4.4,0-8.7,0-13.1c0-0.7,0-1.5,0.1-2.2c0-0.2,0.1-0.4,0.2-0.6c0.2-0.4,0.4-0.7,0.7-1
		C7,4.8,7.3,4.5,7.6,4.2c0.5-0.4,1-0.8,1.5-1c0.1,0,0.3-0.1,0.4-0.1C9.9,3.1,10.2,3,10.6,3c0.1,0,0.3-0.1,0.4-0.1c0.4,0,0.8,0,1.2,0
		c9.8,0,19.6,0,29.3,0c0.9,0,1.8,0.1,2.6,0.4c0.2,0,0.4,0.2,0.5,0.3C45,3.7,45.2,3.9,45.4,4c0.5,0.2,0.8,0.6,1,1
		c0.2,0.3,0.4,0.6,0.6,0.9c0,0.1,0.1,0.2,0.1,0.3c0.1,0.4,0.2,0.8,0.3,1.2c0,0.2,0.1,0.3,0.1,0.5c0,4.6,0,9.1,0,13.7
		c0,5.3,0,10.7,0,16c0,0.5,0,1.1,0,1.6c0,0.5,0,0.9-0.2,1.3c-0.1,0.3-0.2,0.7-0.2,1c0,0.2-0.1,0.3-0.2,0.5c-0.1,0.1-0.2,0.3-0.3,0.4
		c-0.3,0.7-0.9,1.1-1.5,1.5c-0.8,0.5-1.7,0.8-2.7,0.9c-0.3,0-0.5,0-0.8,0c-3.5,0-6.9,0-10.4,0c-4.4,0-8.7,0-13.1,0
		c-0.6,0-1.2,0-1.7,0.2c-0.5,0.1-1,0.2-1.5,0.3c-0.5,0.1-0.9,0.3-1.4,0.4c-0.1,0-0.2,0-0.3,0.1c0,0-0.1,0-0.1,0
		c-0.5,0.1-0.9,0.2-1.4,0.4c0,0-0.1,0-0.1,0c-0.7,0-1.4,0.4-2,0.5c-0.2,0-0.4,0.1-0.5,0.1c-0.1,0-0.1,0-0.2,0
		c-0.3,0.1-0.5,0.2-0.8,0.2c-0.2,0.1-0.3,0.1-0.5,0.1c-0.1,0-0.1,0-0.2,0.1c-0.8,0.1-1.5,0.3-2.2,0.6c-0.1,0-0.3,0-0.4,0
		c-0.2,0-0.3,0-0.5,0c-0.2,0.1-0.5,0.1-0.7-0.1c-0.3-0.2-0.6-0.4-0.9-0.6c-0.2-0.2-0.3-0.4-0.3-0.7C2.5,45.7,2.7,44.8,3,44
		c0.3-0.7,0.5-1.4,0.8-2.2C4,41,4.3,40.2,4.5,39.4c0.1-0.2,0.2-0.5,0.3-0.7c0.3-0.9,0.6-1.8,0.9-2.7c0.1-0.2,0.1-0.3,0.1-0.5
		c0-0.5,0-1,0-1.6C5.8,30,5.8,26,5.8,22C5.8,22,5.8,22,5.8,22z M26.4,6.8c-5.2,0-10.3,0-15.5,0c-0.5,0-0.9,0.1-1.2,0.6
		C9.6,7.7,9.5,8,9.5,8.4c0,0.5,0,1,0,1.5c0,8.5,0,17,0,25.5c0,0.6,0.1,1.1-0.1,1.7c-0.1,0.3-0.2,0.7-0.3,1C9.1,38.3,9,38.5,9,38.7
		c-0.2,0.7-0.4,1.5-0.7,2.2c0,0,0,0.1,0,0.1c-0.2,0.4-0.4,0.8-0.4,1.2c0,0.1-0.1,0.2-0.1,0.3c-0.1,0.1-0.1,0.2-0.2,0.3
		c-0.1,0.2,0.1,0.4,0.3,0.4c0.1,0,0.2,0,0.3-0.1c0.7-0.2,1.5-0.3,2.3-0.6c0,0,0,0,0,0c0.6-0.2,1.1-0.3,1.7-0.5
		c0.3-0.1,0.5-0.1,0.8-0.1c0.2,0,0.4-0.1,0.6-0.1c0.5-0.1,1-0.3,1.4-0.4c0.4-0.1,0.9-0.2,1.3-0.4c0.5-0.1,1-0.1,1.6-0.1
		c7.6,0,15.2,0,22.8,0c0.6,0,1.1,0,1.7,0c0.2,0,0.5,0,0.6-0.2c0.5-0.4,0.8-0.9,0.7-1.6c0-0.5,0-1,0-1.5c0-4.8,0-9.6,0-14.5
		c0-4.8,0-9.6,0-14.5c0-0.3,0-0.5,0-0.8c0-0.3-0.1-0.6-0.3-0.7C42.9,7,42.5,6.8,42,6.8C36.8,6.8,31.6,6.8,26.4,6.8z"/>
	<path class="st0" d="M24.6,25.4c0-0.4,0-0.8,0-1.2c0-0.4,0.1-0.9,0.4-1.3c0.3-0.3,0.5-0.6,0.9-0.7c0.4-0.1,0.7-0.2,1.1-0.3
		c0.5-0.1,1-0.3,1.3-0.7c0.5-0.4,0.9-0.9,0.9-1.6c0-0.1,0-0.3,0-0.4c0.1-0.4,0-0.8-0.2-1.1c0-0.1-0.1-0.2-0.2-0.3
		c-0.2-0.3-0.4-0.5-0.7-0.7c-0.3-0.2-0.5-0.3-0.8-0.5c-0.2-0.1-0.5-0.2-0.7-0.1c-0.2,0-0.3,0.1-0.5,0.1c-0.4,0-0.8,0.1-1.1,0.4
		c-0.2,0.1-0.3,0.2-0.5,0.3c-0.1,0.1-0.2,0.2-0.2,0.3c-0.2,0.5-0.4,1-0.5,1.5c-0.1,0.3-0.2,0.6-0.2,0.8c-0.1,0.6-1,1.3-1.6,1.3
		c-0.8,0-1.4-0.4-1.8-1c-0.4-0.6-0.4-1.1-0.2-1.7c0.1-0.3,0.1-0.6,0.2-0.9c0-0.3,0.2-0.7,0.3-1c0.1-0.3,0.2-0.5,0.4-0.7
		c0.1-0.2,0.3-0.5,0.4-0.7c0.1-0.2,0.3-0.3,0.4-0.5c0.3-0.5,0.8-0.7,1.3-1c0.1-0.1,0.2-0.1,0.2-0.1c0.3-0.2,0.5-0.3,0.9-0.4
		c0.3-0.1,0.6-0.2,0.9-0.3c0.6-0.2,1.1-0.2,1.7-0.2c0.2,0,0.5,0,0.7,0c0.4,0,0.7,0.1,1.1,0.3c0.2,0.1,0.3,0.2,0.5,0.2
		c0.5,0.1,1,0.4,1.4,0.7c0.8,0.6,1.5,1.4,2.1,2.3c0,0,0,0,0,0c0.2,0.7,0.6,1.3,0.7,2c0,0.6,0.1,1.2,0.2,1.8c0,0.2,0,0.4,0,0.6
		c-0.2,0.6-0.3,1.2-0.6,1.8c-0.3,0.7-0.7,1.3-1.3,1.8c-0.3,0.2-0.5,0.5-0.8,0.7c-0.1,0.1-0.2,0.1-0.3,0.2c-0.3,0.2-0.6,0.3-0.9,0.5
		c-0.1,0.1-0.3,0.1-0.4,0.1c-0.3,0.1-0.4,0.1-0.4,0.4c0,0.3,0,0.7,0,1c0,1-0.5,1.6-1.3,2.1c-0.3,0.2-0.7,0.2-1.1,0
		c-0.1,0-0.3-0.1-0.4-0.2c-0.9-0.4-1-1.3-1.1-2.1C24.6,26.2,24.6,25.8,24.6,25.4C24.6,25.4,24.6,25.4,24.6,25.4z"/>
	<path class="st0" d="M29.3,34.3c0.1,0.7-0.3,1.3-0.7,1.7c-0.1,0.1-0.2,0.2-0.3,0.3c-0.2,0.2-0.5,0.4-0.8,0.4
		c-0.5,0.1-0.9,0.2-1.4,0.1c-0.3-0.1-0.5-0.2-0.8-0.3c-0.2-0.1-0.4-0.2-0.5-0.4c-0.1-0.1-0.2-0.2-0.3-0.3c-0.2-0.4-0.4-0.7-0.5-1.1
		c-0.1-0.2-0.1-0.5-0.1-0.7c0-0.5,0.2-1,0.6-1.5c0.3-0.4,0.7-0.6,1.1-0.8c0,0,0.1,0,0.1,0c0.7-0.1,1.3-0.2,2,0
		c0.1,0,0.2,0.1,0.2,0.1c0.3,0.3,0.6,0.5,0.9,0.8c0.2,0.2,0.4,0.5,0.4,0.8C29.2,33.7,29.3,34,29.3,34.3
		C29.3,34.3,29.3,34.3,29.3,34.3z"/>
</g>
</svg>
