<?xml version="1.0" encoding="utf-8"?>
<!-- Generator: Adobe Illustrator 27.0.0, SVG Export Plug-In . SVG Version: 6.00 Build 0)  -->
<svg version="1.1" id="Layer_1" xmlns="http://www.w3.org/2000/svg" xmlns:xlink="http://www.w3.org/1999/xlink" x="0px" y="0px"
	 viewBox="0 0 86 86" enable-background="new 0 0 86 86" xml:space="preserve">
<path d="M84.78,81.32L72.2,68.75c5.63-6.43,9.06-14.84,9.06-24.06v-7.62c0-20.18-16.37-36.54-36.57-36.54h-7.62
	c-20.19,0-36.57,16.36-36.57,36.54v7.62c0,20.18,16.37,36.54,36.57,36.54h7.62c9.19,0,17.59-3.4,24.01-9l12.58,12.58
	c0.48,0.48,1.11,0.72,1.75,0.72c0.63,0,1.26-0.24,1.75-0.72C85.75,83.85,85.75,82.28,84.78,81.32z M37.07,76.29
	c-17.44,0-31.62-14.18-31.62-31.6v-7.62c0-17.43,14.19-31.6,31.62-31.6h7.62c17.44,0,31.62,14.18,31.62,31.6v7.62
	c0,8.72-3.55,16.62-9.28,22.35c-0.01,0.01-0.01,0.01-0.02,0.02c0,0-0.01,0.01-0.01,0.01c-5.72,5.7-13.61,9.23-22.31,9.23H37.07z"/>
</svg>
