<?xml version="1.0" encoding="utf-8"?>
<!-- Generator: Adobe Illustrator 27.0.0, SVG Export Plug-In . SVG Version: 6.00 Build 0)  -->
<svg version="1.1" id="Layer_1" xmlns="http://www.w3.org/2000/svg" xmlns:xlink="http://www.w3.org/1999/xlink" x="0px" y="0px"
	 viewBox="0 0 86 86" enable-background="new 0 0 86 86" xml:space="preserve">
<g>
	<path d="M40.98,44.77H45c11.11,0,20.12-9.01,20.12-20.12v-4.02C65.13,9.51,56.12,0.5,45,0.5h-4.02c-11.11,0-20.12,9.01-20.12,20.12
		v4.02C20.85,35.76,29.86,44.77,40.98,44.77z M25.88,20.62c0-8.32,6.77-15.09,15.09-15.09H45c8.32,0,15.09,6.77,15.09,15.09v4.02
		c0,8.32-6.77,15.09-15.09,15.09h-4.02c-8.32,0-15.09-6.77-15.09-15.09V20.62z"/>
	<path d="M79.03,82.22C73.9,65.8,59.42,54.76,43,54.76c-16.43,0-30.91,11.04-36.03,27.47c-0.41,1.33,0.33,2.74,1.65,3.15
		c0.25,0.08,0.5,0.11,0.75,0.11c1.07,0,2.06-0.69,2.4-1.77C16.24,69.41,28.79,59.79,43,59.79c14.21,0,26.76,9.62,31.22,23.93
		c0.41,1.33,1.83,2.06,3.15,1.65C78.7,84.96,79.44,83.55,79.03,82.22z"/>
</g>
</svg>
