<?xml version="1.0" encoding="utf-8"?>
<!-- Generator: Adobe Illustrator 27.0.0, SVG Export Plug-In . SVG Version: 6.00 Build 0)  -->
<svg version="1.1" id="Layer_1" xmlns="http://www.w3.org/2000/svg" xmlns:xlink="http://www.w3.org/1999/xlink" x="0px" y="0px"
	 viewBox="0 0 107.9 24" style="enable-background:new 0 0 107.9 24;" xml:space="preserve">
<style type="text/css">
	.st0{clip-path:url(#SVGID_00000157988986314346409510000016326195804499750035_);}
	.st1{fill:#1AE6AF;}
	.st2{fill:#03A2F4;}
	.st3{fill:#FFFFFF;}
</style>
<g id="Layer_2_00000072978811683318795130000007102614234709549474_">
</g>
<g id="Layer_1_00000039827199740652118980000017534780170858283190_">
	<g>
		<g>
			<defs>
				<path id="SVGID_1_" d="M0,0h24v24H3c-1.7,0-3-1.3-3-3V0z"/>
			</defs>
			<clipPath id="SVGID_00000095322756996721323050000011893048041485052841_">
				<use xlink:href="#SVGID_1_"  style="overflow:visible;"/>
			</clipPath>
			<g style="clip-path:url(#SVGID_00000095322756996721323050000011893048041485052841_);">
				<path class="st1" d="M12,12H0V0C6.6,0,12,5.4,12,12z"/>
				<path class="st1" d="M12,12H0v12h12V12z"/>
				<path class="st2" d="M24,24H12V12C18.6,12,24,17.4,24,24z"/>
			</g>
		</g>
	</g>
	<g>
		<path class="st3" d="M68.2,19.9c-0.7,0-1.3,0-1.9,0c-0.4,0-0.6-0.4-0.7-0.8c0-0.4-0.1-0.8-0.1-1.2c0-1.9,0-3.7,0-5.6
			c0-1.1,0.4-1.8,1.4-2.3c1.8-0.8,3.6-1,5.4-0.3c0.1,0.1,0.3,0.1,0.4,0.2c0.4,0.4,0.8,0.3,1.3,0C75.6,9,77.3,9,79,9.7
			c1.2,0.5,1.8,1.5,1.8,2.8c0.1,2.3,0,4.7,0,7c0,0.2,0,0.4-0.3,0.4c-0.5,0-0.9,0.1-1.4,0.1c-0.7-0.1-1-0.4-1-1.2c0-1.7,0-3.4,0-5
			c0-0.1,0-0.2,0-0.3c0-1.8-1.2-2.6-2.9-1.9c-0.1,0.1-0.3,0.1-0.4,0.2c-0.3,0.2-0.4,0.4-0.4,0.7c0,2.3,0,4.7,0,7
			c0,0.1-0.2,0.3-0.3,0.3c-0.6,0-1.1,0-1.7,0c-0.3,0-0.5-0.3-0.6-0.7c0-0.3-0.1-0.5-0.1-0.8c0-1.8,0-3.6,0-5.5
			c0-0.9-0.5-1.5-1.4-1.6c-0.6-0.1-1.3,0-1.9,0.3c-0.3,0.1-0.4,0.3-0.4,0.6c0,2.3,0,4.6,0,6.9C68.2,19.5,68.2,19.6,68.2,19.9z"/>
		<path class="st3" d="M39.6,14.4c-1.9,0-3.7,0-5.6,0c0,0.2,0,0.3,0,0.5c0,1.5,0,3.1,0,4.6c0,0.3-0.1,0.5-0.4,0.5
			c-0.5,0-1.1,0-1.6,0c-0.4,0-0.7-0.4-0.7-0.8c0-0.2,0-0.3,0-0.5c0-3.8,0-7.6,0-11.4c0-0.5,0.2-0.6,0.6-0.6c0.4,0,0.7,0,1.1,0
			c0.8,0,1.1,0.4,1.1,1.2c0,1.3,0,2.6,0,3.9c0,0.2,0,0.3,0,0.5c1.9,0,3.7,0,5.6,0c0-0.8,0-1.6,0-2.4c0-0.9,0-1.8,0-2.7
			c0-0.3,0.1-0.4,0.4-0.5c0.5,0,1-0.1,1.5,0c0.5,0,0.8,0.3,0.9,0.8c0,0.2,0,0.4,0,0.5c0,3.8,0,7.6,0,11.4c0,0.5-0.2,0.7-0.6,0.7
			c-0.5,0-0.9,0-1.4-0.1c-0.4-0.1-0.6-0.3-0.7-0.7c0-0.4-0.1-0.9-0.1-1.3C39.6,16.7,39.6,15.6,39.6,14.4z"/>
		<path class="st3" d="M85.9,15.9c-0.1,0.7,0.7,1.7,1.7,2c1.4,0.5,2.8,0.2,4-0.4c0.4-0.2,0.5-0.1,0.8,0.2c0.4,0.6,0.3,1.2-0.3,1.7
			c-0.6,0.5-1.3,0.7-2,0.7c-1.3,0.2-2.7,0.1-3.9-0.4c-1.8-0.7-2.7-2.1-3-3.9c-0.2-1.4-0.1-2.7,0.6-4C84.7,10,86.9,9,89,9.3
			c1.7,0.3,3.1,1,3.8,2.7c0.2,0.5,0.3,1.1,0.4,1.7c0.1,0.8-0.3,1.2-1,1.3c-1.6,0.2-3.1,0.4-4.7,0.7C86.9,15.8,86.4,15.9,85.9,15.9z
			 M85.7,14.1c1.6-0.2,3.1-0.4,4.6-0.7c0.1,0,0.2-0.2,0.2-0.3c-0.1-0.8-0.8-1.5-1.6-1.7C87.2,10.9,85.7,12.2,85.7,14.1z"/>
		<path class="st3" d="M47.7,15.9c0.3,1,0.9,1.6,1.8,2c1.4,0.5,2.7,0.2,4-0.4c0.3-0.2,0.5-0.1,0.7,0.1c0.4,0.6,0.4,1.3-0.2,1.8
			c-0.6,0.5-1.3,0.6-2,0.7c-1.2,0.2-2.4,0.1-3.6-0.3c-1.7-0.6-2.8-1.8-3.2-3.6c-0.3-1.5-0.3-3,0.5-4.4c1-1.8,3.1-2.8,5.2-2.5
			c1.7,0.3,3.1,1,3.7,2.6c0.3,0.6,0.3,1.4,0.4,2.1c0,0.6-0.4,0.9-1,1c-1.6,0.2-3.1,0.5-4.7,0.7C48.7,15.8,48.2,15.9,47.7,15.9z
			 M47.5,14.1c1.4-0.2,2.7-0.4,4-0.6c0.9-0.1,1-0.4,0.5-1.2c0-0.1-0.1-0.1-0.1-0.1c-0.6-0.8-1.8-1.1-2.9-0.7
			C48.1,11.9,47.4,13,47.5,14.1z"/>
		<path class="st3" d="M99.3,9.3c0.9,0,1.9,0.1,2.7,0.5c0.7,0.4,0.9,0.8,0.8,1.5c-0.1,0.6-0.4,0.8-1,0.6c-1-0.5-2.1-0.6-3.2-0.5
			c-0.2,0-0.4,0.1-0.5,0.2c-0.2,0.2-0.5,0.5-0.5,0.8c-0.1,0.4,0.2,0.7,0.5,0.8c0.6,0.2,1.2,0.4,1.9,0.5c1,0.3,2,0.6,2.7,1.4
			c1.1,1.4,0.8,4-1.6,4.7c-1.6,0.5-3.1,0.5-4.7,0c-0.4-0.1-0.8-0.4-1.2-0.7c-0.4-0.4-0.5-0.9-0.2-1.4c0.2-0.5,0.4-0.6,1-0.3
			c1.2,0.6,2.4,1,3.8,0.6c0.6-0.1,0.8-0.4,0.9-0.9c0-0.5-0.2-0.9-0.7-1.1c-0.6-0.2-1.3-0.4-1.9-0.5c-0.9-0.2-1.8-0.5-2.4-1.3
			c-1.1-1.4-0.6-3.5,1-4.3C97.4,9.4,98.2,9.3,99.3,9.3z"/>
		<path class="st3" d="M59.7,15.9c0,1.2,0,2.4,0,3.5c0,0.3-0.1,0.4-0.4,0.4c-0.5,0-1.1,0-1.6,0c-0.4,0-0.6-0.4-0.6-0.8
			c0-0.6-0.1-1.2-0.1-1.8c0-1.6,0-3.3,0-4.9c0-1.4,0.4-2,1.7-2.5s2.7-0.8,4.1-0.5c1,0.2,1.4,0.9,1,1.8c-0.1,0.3-0.2,0.3-0.5,0.3
			c-1-0.1-2-0.1-3,0.3c-0.4,0.1-0.5,0.3-0.5,0.7C59.8,13.7,59.7,14.8,59.7,15.9z"/>
	</g>
</g>
</svg>
